PathFileType	4	(X/Y/Z)	KinectSkeleton.trc																																																	
DataRate	CameraRate	NumFrames	NumMarkers	Units	OrigDataRate	OrigDataStartFrame	OrigNumFrames																																													
60	60	13	17	mm	60	310	300																																													
Frame#	Time	Neck			ShoulderMid			R.Shoulder			L.Shoulder			R.Elbow			L.Elbow			R.Wrist			L.Wrist			HipCenter			R.Hip			L.Hip			R.Knee			L.Knee			R.Ankle			L.Ankle			R.Foot			L.Foot		
		X1	Y1	Z1	X2	Y2	Z2	X3	Y3	Z3	X4	Y4	Z4	X5	Y5	Z5	X6	Y6	Z6	X7	Y7	Z7	X8	Y8	Z8	X9	Y9	Z9	X10	Y10	Z10	X11	Y11	Z11	X12	Y12	Z12	X13	Y13	Z13	X14	Y14	Z14	X15	Y15	Z15	X16	Y16	Z16	X17	Y17	Z17
																																																				
310	21.063	-1155.064	1288.679	181.744	-1155.064	1288.679	181.744	-1289.606	1249.712	285.424	-1005.254	1200.813	121.477	-1521.631	1173.865	423.373	-736.079	1170.235	73.147	-1498.299	1321.636	603.158	-594.877	1333.609	155.093	-1250.957	785.157	319.128	-1292.881	816.694	381.991	-1204.465	750.184	249.414	-1065.72	684.983	681.381	-1069.713	424.451	435.603	-855.867	528.403	963.639	-1262.417	139.119	272.491	-767.697	652.872	1042.337	-1214.832	-25.085	347.155
311	21.124	-1156.77	1289.501	182.087	-1156.77	1289.501	182.087	-1287.26	1253.045	291.447	-1007.288	1202.344	119.391	-1518.327	1171.237	428.646	-737.681	1171.164	70.969	-1487.438	1310.563	614.493	-592.495	1331.308	153.527	-1250.093	784.954	321.457	-1291.345	816.522	384.942	-1204.345	749.946	251.054	-1062.086	680.591	681.814	-1070.084	424.828	440.222	-849.637	521.554	961.714	-1260.903	139.893	272.62	-767.396	650.065	1041.023	-1226.633	-28.623	345.823
312	21.185	-1158.282	1289.992	180.995	-1158.282	1289.992	180.995	-1289.276	1255.2	290.794	-1008.11	1202.701	118.866	-1519.569	1172.426	430.32	-737.786	1170.915	70.398	-1483.296	1307.704	618.997	-593.774	1332.81	153.426	-1252.194	784.494	322.387	-1294.02	816.236	385.709	-1205.811	749.293	252.164	-1062.37	678.276	681.299	-1071.047	423.289	441.831	-847.872	516.44	959.528	-1262.243	138.059	272.712	-768.629	645.745	1041.602	-1214.954	-27.537	346.666
313	21.26	-1159.335	1290.98	182.599	-1159.335	1290.98	182.599	-1292.572	1250.718	289.887	-1009.146	1203.557	117.834	-1523.555	1179.189	436.705	-738.291	1171.175	66.158	-1472.77	1316.537	621.743	-594.339	1333.007	152.107	-1253.157	782.447	320.433	-1294.976	814.259	384.175	-1206.781	747.168	249.744	-1061.109	674.852	679.633	-1071.292	421.074	442.298	-845.124	510.42	957.466	-1267.394	137.368	272.568	-769.342	642.178	1040.437	-1218.355	-28.921	345.836
314	21.324	-1157.868	1290.906	185.197	-1157.868	1290.906	185.197	-1290.321	1253.496	293.872	-1008.798	1203.295	118.542	-1521.7	1178.282	438.108	-738.24	1171.61	65.167	-1468.615	1319.606	619.415	-595.185	1333.545	152.299	-1253.864	782.514	321.117	-1295.184	814.133	385.262	-1208.043	747.449	249.984	-1061.696	673.842	680.505	-1072.333	422.384	443.969	-845.761	509.274	958.2	-1265.348	138.562	271.078	-771.156	642.112	1040.447	-1220.336	-27.553	347.185
315	21.403	-1157.792	1290.898	185.347	-1157.792	1290.898	185.347	-1290.163	1253.493	294.111	-1008.763	1203.294	118.609	-1521.346	1178.331	438.674	-738.238	1171.662	65.07	-1467.685	1319.53	619.901	-595.165	1333.596	152.161	-1253.812	782.502	321.179	-1295.122	814.115	385.33	-1208.001	747.444	250.038	-1061.443	673.791	680.393	-1072.266	422.398	444.017	-845.321	509.171	957.898	-1265.227	138.602	271.041	-770.593	641.846	1040.29	-1220.071	-27.481	347.121
316	21.462	-1158.073	1292.736	185.281	-1158.073	1292.736	185.281	-1289.838	1255.344	294.754	-1008.628	1203.741	121.505	-1520.256	1178.075	438.801	-738.745	1172.105	66.387	-1465.197	1319.776	618.866	-595.776	1334.648	151.792	-1252.047	784.876	322.607	-1293.581	815.923	386.77	-1205.988	750.446	251.453	-1061.019	674.182	681.418	-1075.047	421.225	440.683	-845.834	508.7	958.524	-1267.706	135.359	271.797	-764.787	639.975	1036.663	-1202.335	-23.149	348.822
317	21.527	-1158.866	1293.631	185.847	-1158.866	1293.631	185.847	-1291.245	1255.928	294.563	-1009.016	1205.785	121.647	-1522.271	1177.951	437.49	-739.152	1174.007	65.916	-1467.265	1319.389	617.911	-594.238	1334.495	152.201	-1251.952	784.952	321.911	-1293.472	815.789	386.23	-1205.909	750.755	250.584	-1061.083	674.059	681.256	-1074.37	422.144	440.829	-845.988	508.767	958.78	-1266.513	135.887	271.64	-765.754	640.526	1037.109	-1203.456	-23.568	348.836
318	21.586	-1157.632	1293.999	185.656	-1157.632	1293.999	185.656	-1291.475	1254.496	292.371	-1007.518	1206.248	121.662	-1522.021	1177.843	436.942	-738.172	1173.589	63.582	-1465.109	1317.699	618.093	-598.267	1337.984	150.953	-1252.001	785.409	321.486	-1294.138	816.534	385.293	-1205.272	750.891	250.727	-1061.514	674.753	680.268	-1072.931	422.48	441.005	-846.427	509.053	957.711	-1265.099	136.525	271.082	-766.349	639.901	1037.818	-1207.378	-24.905	348.48
319	21.663	-1156.975	1294.433	186.047	-1156.975	1294.433	186.047	-1288.786	1251.125	294.238	-1007.169	1206.335	122.084	-1521.048	1178.666	437.483	-738.236	1174.434	63.432	-1467.365	1319.586	618.386	-600.603	1340.757	149.935	-1248.949	785.518	318.819	-1290.328	815.828	383.368	-1203.061	751.906	247.236	-1061.024	673.648	680.019	-1075.739	423.914	440.508	-848.94	508.022	959.092	-1266.655	137.014	271.926	-761.478	638.363	1031.428	-1206.219	-23.773	347.971
320	21.726	-1158.946	1298.233	187.898	-1158.946	1298.233	187.898	-1291.492	1259.339	295.991	-1008.997	1210.899	122.802	-1522.686	1178.758	437.343	-739.06	1181.793	65.615	-1470.679	1319.759	619.075	-591.846	1339.756	152.828	-1252.078	787.56	317.703	-1295.533	817.633	381.128	-1203.889	754.209	247.368	-1064.802	670.068	674.738	-1072.681	425.689	438.223	-850.631	501.823	951.346	-1266.08	139.425	270.247	-765.437	627.891	1033.795	-1216.139	-26.135	344.249
321	21.803	-1157.218	1296.677	187.235	-1157.218	1296.677	187.235	-1291.269	1255.832	292.571	-1007.506	1209.831	122.735	-1521.385	1180.393	436.904	-737.548	1185.479	67.213	-1470.886	1319.264	619.84	-589.347	1342.209	153.23	-1250.247	787.606	317.736	-1293.577	817.742	380.915	-1202.196	754.186	247.674	-1064.073	668.747	673.224	-1074.885	424.82	437.337	-851.313	499.462	948.759	-1265.706	137.402	270.85	-761.2	624.092	1027.044	-1211.258	-26.412	344.217
322	21.866	-1156.321	1298.077	190.389	-1156.321	1298.077	190.389	-1290.641	1255.982	294.428	-1006.912	1210.578	126.457	-1521.694	1183.487	437.735	-737.558	1189.258	69.375	-1468.018	1322.596	619.009	-587.676	1343.859	155.152	-1251.202	789.567	316.999	-1295.069	819.664	379.621	-1202.556	756.189	247.553	-1064.99	668.11	669.117	-1074.822	428.443	438.143	-851.632	497.207	942.156	-1262.154	140.142	270.879	-757.998	619.413	1019.41	-1221.618	-28.357	341.693
